<?xml version="1.0" encoding="utf-8"?><svg version="1.1" id="Layer_1" xmlns="http://www.w3.org/2000/svg" xmlns:xlink="http://www.w3.org/1999/xlink" x="0px" y="0px" viewBox="0 0 122.88 60.18" style="enable-background:new 0 0 122.88 60.18" xml:space="preserve" fill="currentColor"><style type="text/css">.st0{fill-rule:evenodd;clip-rule:evenodd;}</style><g><path class="st0" d="M1.27,29.05c-0.34-0.42-0.58-0.81-0.74-1.18c-0.68-0.78-0.72-1.95-0.05-2.78L14.27,8.17 c0.11-0.13,0.38-0.47,0.66-0.82c2.41-3,4.36-5.42,8.71-6.76C24.9,0.2,26.19,0.01,27.48,0c1.27-0.01,2.53,0.15,3.78,0.46 c1.16,0.28,1.87,1.46,1.58,2.61c-0.28,1.16-1.46,1.87-2.61,1.58c-0.93-0.23-1.84-0.35-2.73-0.34c-0.86,0.01-1.73,0.13-2.6,0.4 c-3.08,0.95-4.66,2.91-6.61,5.34c-0.16,0.2-0.33,0.41-0.68,0.84L6.89,24.06C7.2,24.04,7.53,24.02,7.86,24 c13.68-1.83,27.27-0.44,40.77,5.14c5.01,2.07,9.93,5.99,15.4,4.56c3.62-0.95,8.91-4.45,13.27-6.04 c13.43-4.89,25.42-4.91,38.91-3.32l-10.95-13.45c-0.35-0.43-0.52-0.64-0.68-0.84c-1.95-2.43-3.53-4.39-6.61-5.34 c-0.87-0.27-1.73-0.4-2.6-0.4c-0.89-0.01-1.8,0.11-2.73,0.34c-1.16,0.28-2.33-0.42-2.61-1.58c-0.28-1.16,0.42-2.33,1.58-2.61 C92.87,0.15,94.13-0.01,95.4,0c1.3,0.01,2.58,0.2,3.85,0.59c4.35,1.34,6.29,3.76,8.71,6.76c0.28,0.35,0.56,0.69,0.66,0.82 l13.78,16.93c0.75,0.92,0.61,2.28-0.31,3.04c-0.21,0.17-0.44,0.29-0.68,0.37c-1.33,2.23-4.04,4.8-4.75,5.84 c-1.57,2.27-2.89,4.92-4.07,7.81c-1.71,5.1-3.77,9.16-6.21,12.07c-2.31,2.77-4.97,4.5-8,5.14c-0.4,0.08-0.79,0.18-1.18,0.24 c-5.33,0.87-15.01,0.92-20.03-1.02c-1.46-0.56-2.79-1.43-4-2.49c-1.69-1.31-4.3-6.18-6.29-10.57c-1.39-3.06-3.82-4.99-5.24-5.05 c-1.57-0.07-4.16,1.72-5.62,4.79c-1.12,2.33-2.65,4.55-3.58,6.66c-3.11,7.06-10.95,8.29-19.02,8.26c-2.18-0.01-4.35-0.2-6.54-0.59 c-7.9-1.43-10.15-2.39-13.42-9.56C9.33,41.02,8.78,36.2,1.27,29.05L1.27,29.05z M108.44,43.22c1-3.75,3.04-9.23,1.05-12.8 c-2.65-4.76-12.36-3.63-19.84-1.89c-6.66,1.55-18.49,4.1-18.34,12.48c-0.17,8.98,3.04,13.09,8.25,14.3 c7.36,2.58,19.94,2.74,25.17-4.16C106.3,49.09,107.52,46.42,108.44,43.22L108.44,43.22z M14.3,43.22c-1-3.75-3.04-9.23-1.05-12.8 c2.65-4.76,12.36-3.63,19.84-1.89c6.66,1.55,18.49,4.1,18.34,12.48c0.17,8.98-3.04,13.09-8.25,14.3 c-7.36,2.58-19.94,2.74-25.17-4.16C16.45,49.09,15.22,46.42,14.3,43.22L14.3,43.22z"/></g></svg>